HIERARCHY
ROOT Hips
{
    OFFSET 0.000000 0.000000 0.000000
    CHANNELS 6 Xposition Yposition Zposition Zrotation Xrotation Yrotation
    JOINT Spine
    {
        OFFSET -0.000000 14.517291 0.000000
        CHANNELS 3 Zrotation Xrotation Yrotation
        JOINT Spine1
        {
            OFFSET -0.000000 37.558300 0.000000
            CHANNELS 3 Zrotation Xrotation Yrotation
            JOINT Neck
            {
                OFFSET -0.000000 37.404057 3.400369
                CHANNELS 3 Zrotation Xrotation Yrotation
                JOINT Head
                {
                    OFFSET -0.000000 24.785618 -3.540803
                    CHANNELS 3 Zrotation Xrotation Yrotation
                    End Site
                    {
                        OFFSET -0.000000 35.408028 0.000000
                    }
                }
            }
            JOINT LeftShoulder
            {
                OFFSET 6.992933 33.973492 -0.192664
                CHANNELS 3 Zrotation Xrotation Yrotation
                JOINT LeftArm
                {
                    OFFSET 21.527611 0.000000 0.000000
                    CHANNELS 3 Zrotation Xrotation Yrotation
                    JOINT LeftForeArm
                    {
                        OFFSET 56.353916 0.000000 0.000000
                        CHANNELS 3 Zrotation Xrotation Yrotation
                        JOINT LeftHand
                        {
                            OFFSET 47.774071 0.000000 0.000000
                            CHANNELS 3 Zrotation Xrotation Yrotation
                            End Site
                            {
                                OFFSET 26.556021 0.000000 0.000000
                            }
                        }
                    }
                }
            }
            JOINT RightShoulder
            {
                OFFSET -7.065357 33.973492 -0.192664
                CHANNELS 3 Zrotation Xrotation Yrotation
                JOINT RightArm
                {
                    OFFSET -21.527611 0.000000 0.000000
                    CHANNELS 3 Zrotation Xrotation Yrotation
                    JOINT RightForeArm
                    {
                        OFFSET -56.353916 0.000000 0.000000
                        CHANNELS 3 Zrotation Xrotation Yrotation
                        JOINT RightHand
                        {
                            OFFSET -47.774071 0.000000 0.000000
                            CHANNELS 3 Zrotation Xrotation Yrotation
                            End Site
                            {
                                OFFSET -26.556021 0.000000 0.000000
                            }
                        }
                    }
                }
            }
        }
    }
    JOINT LeftUpLeg
    {
        OFFSET 17.704014 0.000000 0.000000
        CHANNELS 3 Zrotation Xrotation Yrotation
        JOINT LeftLeg
        {
            OFFSET -0.000000 -81.181816 0.000000
            CHANNELS 3 Zrotation Xrotation Yrotation
            JOINT LeftFoot
            {
                OFFSET -0.000000 -62.821102 0.000000
                CHANNELS 3 Zrotation Xrotation Yrotation
                JOINT LeftToeBase
                {
                    OFFSET -0.000000 -11.507608 26.556021
                    CHANNELS 3 Zrotation Xrotation Yrotation
                    End Site
                    {
                        OFFSET -0.000000 0.000000 7.081605
                    }
                }
            }
        }
    }
    JOINT RightUpLeg
    {
        OFFSET -17.704014 0.000000 0.000000
        CHANNELS 3 Zrotation Xrotation Yrotation
        JOINT RightLeg
        {
            OFFSET -0.000000 -81.181816 0.000000
            CHANNELS 3 Zrotation Xrotation Yrotation
            JOINT RightFoot
            {
                OFFSET -0.000000 -62.821102 0.000000
                CHANNELS 3 Zrotation Xrotation Yrotation
                JOINT RightToeBase
                {
                    OFFSET -0.000000 -11.507608 26.556021
                    CHANNELS 3 Zrotation Xrotation Yrotation
                    End Site
                    {
                        OFFSET -0.000000 0.000000 7.081605
                    }
                }
            }
        }
    }
}
MOTION
Frames:    5
Frame Time:    0.008333
28.144184    93.542503    -32.036106    2.577239    1.231778    -55.314873    -1.074728    8.149717    0.065151    2.196411    -4.935025    0.080065    19.273649    0.126073    16.960697    -13.268632    5.072336    13.518930    14.205356    -3.042996    -18.728151    -4.944814    -23.442459    -34.775238    11.351389    -37.255764    -14.724028    -27.757629    -25.070930    -48.524998    -7.315145    0.785521    0.360127    34.976490    4.332963    80.760544    8.976006    -1.711294    104.379326    3.970529    -12.520473    20.582468    69.281494    -43.193569    40.932392    -131.866516    53.570801    88.373360    16.421360    -33.647964    39.515648    0.000000    0.000000    0.000000    -57.817795    -33.191242    -19.298431    153.873642    58.022697    -128.366440    17.007248    -36.103474    14.325583    0.000000    0.000000    0.000000    
28.155876    93.573792    -32.015167    2.598826    1.236267    -55.320786    -1.086658    8.153280    0.065957    2.203407    -4.978492    0.084886    19.301554    0.116261    16.951807    -13.309784    5.079868    13.500570    14.218287    -3.044254    -18.745253    -4.921733    -23.419588    -34.757973    11.369841    -37.271366    -14.737853    -27.807812    -25.056456    -48.549759    -7.309577    0.794538    0.338940    34.971775    4.326060    80.731735    8.995344    -1.679950    104.385162    3.968804    -12.516009    20.580700    69.254631    -43.191616    40.924465    -131.823547    53.572216    88.349777    16.408136    -33.663315    39.489479    0.000000    0.000000    0.000000    -57.815418    -33.188156    -19.309156    153.828873    58.056355    -128.360031    17.030733    -36.121471    14.336512    0.000000    0.000000    0.000000    
28.167147    93.610123    -32.000561    2.618855    1.244161    -55.329094    -1.101408    8.143192    0.062744    2.219299    -4.991445    0.084769    19.284576    0.096375    16.947245    -13.288323    5.069032    13.495698    14.230870    -3.039299    -18.733366    -4.900107    -23.434155    -34.761101    11.361828    -37.273018    -14.756822    -27.855658    -25.031420    -48.568340    -7.303607    0.796784    0.335959    34.970901    4.298548    80.706024    9.020123    -1.641543    104.382416    3.958028    -12.511494    20.580635    69.228279    -43.191883    40.928478    -131.787994    53.586487    88.322227    16.417646    -33.664085    39.497784    0.000000    0.000000    0.000000    -57.809757    -33.188553    -19.327990    153.788986    58.093155    -128.357376    17.046925    -36.138809    14.352459    0.000000    0.000000    0.000000    
28.179873    93.646957    -31.985109    2.638859    1.252720    -55.347019    -1.120290    8.133970    0.068056    2.243733    -5.004104    0.089557    19.298210    0.072080    16.947687    -13.310830    5.080097    13.488976    14.241590    -3.043271    -18.734682    -4.894137    -23.464643    -34.753338    11.342288    -37.244705    -14.791539    -27.858953    -24.991777    -48.587032    -7.301474    0.784127    0.338211    34.962334    4.292267    80.665062    9.032096    -1.630195    104.377281    3.939667    -12.517569    20.592030    69.206566    -43.182011    40.926716    -131.751694    53.595257    88.295944    16.413704    -33.669575    39.491928    0.000000    0.000000    0.000000    -57.802383    -33.203270    -19.322983    153.723373    58.119328    -128.316345    17.028395    -36.150246    14.344800    0.000000    0.000000    0.000000    
28.188795    93.685806    -31.970587    2.647538    1.265169    -55.362946    -1.121328    8.128789    0.087924    2.254136    -5.005819    0.082497    19.295025    0.039805    16.942217    -13.300131    5.074852    13.478515    14.258636    -3.036300    -18.719110    -4.890191    -23.501177    -34.773396    11.344428    -37.209419    -14.811587    -27.862345    -24.945488    -48.596237    -7.298132    0.784223    0.328990    34.967464    4.283354    80.646294    9.043248    -1.625680    104.374588    3.957269    -12.523787    20.590540    69.187012    -43.172161    40.911633    -131.712799    53.604179    88.257698    16.404919    -33.685276    39.501736    0.000000    0.000000    0.000000    -57.777611    -33.217014    -19.322348    153.687210    58.162766    -128.320831    17.074549    -36.136650    14.382180    0.000000    0.000000    0.000000    
